<svg width="60" height="61" viewBox="0 0 60 61" fill="none" xmlns="http://www.w3.org/2000/svg">
<path fill-rule="evenodd" clip-rule="evenodd" d="M7.49994 24.5509C7.49994 15.1621 15.1111 7.5509 24.4999 7.5509C33.8888 7.5509 41.4999 15.1621 41.4999 24.5509C41.4999 33.9397 33.8888 41.5509 24.4999 41.5509C15.1111 41.5509 7.49994 33.9397 7.49994 24.5509ZM24.4999 1.5509C11.7974 1.5509 1.49994 11.8484 1.49994 24.5509C1.49994 37.2535 11.7974 47.5509 24.4999 47.5509C29.4066 47.5509 33.9545 46.0144 37.6885 43.3964L51.6715 57.3793C53.2336 58.9414 55.7663 58.9414 57.3284 57.3793C58.8905 55.8172 58.8905 53.2846 57.3284 51.7225L43.3454 37.7395C45.9635 34.0054 47.4999 29.4576 47.4999 24.5509C47.4999 11.8484 37.2025 1.5509 24.4999 1.5509Z" fill="black"/>
</svg>
